<svg width="64" height="64" viewBox="0 0 64 64" fill="none" xmlns="http://www.w3.org/2000/svg">
<path fill-rule="evenodd" clip-rule="evenodd" d="M17.789 29.5359L7.9325 19.5443L19.4768 8L29.2658 17.519L17.789 29.5359ZM45.7384 34.1266L56.0675 44.4557L44.8608 56L34.3966 45.8059L45.7384 34.1266ZM9.75528 54.1772L13.5359 38.9198L25.8903 51.0717L9.75528 54.1772ZM15.8987 36.1519L42.3629 9.75527L48.1688 11.1055L52.827 15.4262L54.5823 21.3671L27.9156 48.4388L15.8987 36.1519ZM22.6498 39.797C22.6498 39.797 43.173 19.3418 47.8987 14.7506C48.4343 14.2303 49.8369 15.498 49.3165 16.0333C44.5907 20.8941 24.135 41.4173 24.135 41.4173L22.6498 39.797ZM14.9536 18.1936C13.6034 19.4088 11.7131 21.2316 11.7131 21.2316L13.2658 22.7844C13.2658 22.7844 15.2911 20.8941 16.5063 19.8139C17.1614 19.2316 15.605 17.6074 14.9536 18.1936ZM18.1941 21.9067C17.1814 22.7844 15.2911 24.9447 15.2911 24.9447L16.7764 26.3624C16.7764 26.3624 18.9367 24.2021 19.7468 23.3244C20.3038 22.7211 18.8146 21.3689 18.1941 21.9067ZM37.0295 46.6831C37.0295 46.6831 38.9198 44.7253 40.0675 43.6451C40.692 43.0574 42.2068 44.5722 41.6203 45.1978C40.6076 46.278 38.6498 48.1683 38.6498 48.1683L37.0295 46.6831ZM44.5907 47.4257C43.6456 48.1683 41.2827 50.6662 41.2827 50.6662L42.903 52.1514L46.1435 48.9109C46.7368 48.3176 45.2505 46.9073 44.5907 47.4257Z" fill="#E1AD3B"/>
</svg>
