<svg width="64" height="64" viewBox="0 0 64 64" fill="none" xmlns="http://www.w3.org/2000/svg">
<path d="M16.7488 27.2709L21.9507 24.7882L33.7734 12.6108L36.2562 8L45.7143 17.4581L40.2759 20.1773L28.9261 31.6453L26.2069 36.9655L16.7488 27.2709Z" fill="#E1AD3B"/>
<path d="M52.335 48.5517L35.665 29.2808L38.1478 26.6798L57.1823 43.5862L52.335 48.5517Z" fill="#E1AD3B"/>
<path d="M25.1429 45.5961H11.5468V47.133H25.1429V45.5961Z" fill="#E1AD3B"/>
<path d="M29.5172 50.798H6.81773V56H29.5172V50.798Z" fill="#E1AD3B"/>
<path d="M16.7488 27.2709L21.9507 24.7882L33.7734 12.6108L36.2562 8L45.7143 17.4581L40.2759 20.1773L28.9261 31.6453L26.2069 36.9655L16.7488 27.2709Z" stroke="#E1AE3C"/>
<path d="M52.335 48.5517L35.665 29.2808L38.1478 26.6798L57.1823 43.5862L52.335 48.5517Z" stroke="#E1AE3C"/>
<path d="M25.1429 45.5961H11.5468V47.133H25.1429V45.5961Z" stroke="#E1AE3C"/>
<path d="M29.5172 50.798H6.81773V56H29.5172V50.798Z" stroke="#E1AE3C"/>
</svg>
