<svg width="64" height="64" viewBox="0 0 64 64" fill="none" xmlns="http://www.w3.org/2000/svg">
<path d="M27.2015 10.7825C29.4334 10.5593 30.6832 12.9251 30.6832 12.9251L36.5753 12.0324C36.5753 12.0324 33.2275 8.01501 31.6206 8.19355C29.3424 8.44669 28.005 8.5508 25.6838 8.01501C25.2508 7.91505 24.8726 8.33094 24.8357 8.77384C24.7465 9.84538 26.6212 10.8405 27.2015 10.7825Z" fill="#E1AD3B"/>
<path d="M25.9963 12.0324C24.9409 11.5714 24.1943 10.579 23.7198 10.1576C23.2288 9.72145 21.6665 11.8802 22.6931 12.2109C25.3267 13.0593 29.3441 14.4428 29.3441 14.4428C29.3441 14.4428 29.7478 13.2486 28.3621 12.4787C27.5586 12.0324 26.8579 12.4086 25.9963 12.0324Z" fill="#E1AD3B"/>
<path d="M29.1209 15.9158C26.504 15.0158 23.3181 14.0413 22.3807 13.7286C21.0862 13.2967 20.1042 15.8268 21.354 16.2283C24.0886 17.1067 25.6111 17.6343 28.3621 18.4601C29.7012 18.8621 30.5493 16.4071 29.1209 15.9158Z" fill="#E1AD3B"/>
<path d="M26.7998 19.576C24.925 18.9067 22.9638 18.2431 20.5059 17.3888C19.4793 17.032 18.9436 19.3085 19.8364 19.576C22.0361 20.2353 24.0769 20.96 25.5053 21.1383C26.1302 21.2163 27.0229 19.6557 26.7998 19.576Z" fill="#E1AD3B"/>
<path d="M24.0769 22.3882C22.47 21.9867 21.0862 21.6296 20.0595 21.2723C19.4486 21.0596 18.9282 22.6719 19.5239 22.9241C20.6845 23.4153 21.6516 23.7245 23.0056 23.9505C24.0769 24.1293 24.434 22.4774 24.0769 22.3882Z" fill="#E1AD3B"/>
<path d="M30.6832 15.3355C30.4909 15.0364 30.8617 14.4428 30.8617 14.4428C30.8617 14.4428 36.0843 13.3717 39.2089 13.2376C40.4255 13.1853 41.7979 13.7288 42.2442 13.9518C43.069 14.3637 43.3155 16.1937 42.8692 16.2283C42.2889 16.2731 38.6733 16.541 37.9591 16.63C37.3959 16.7002 37.3341 18.1479 38.2269 18.0584C39.204 17.9604 42.2442 17.6566 43.2262 17.6566C44.175 17.6566 44.2975 19.8587 44.0744 19.9331C42.3335 20.5137 40.9498 20.8261 38.8964 21.2723C38.2363 21.4157 38.4947 22.7902 39.2089 22.656C41.3125 22.2608 43.3602 21.585 44.5654 21.4954C45.101 21.4557 45.4135 23.3361 44.9225 23.5934C43.0477 24.5757 41.3515 25.3345 40.2802 26.0038C39.6106 26.4221 40.4141 27.6013 40.9051 27.3429C42.6013 26.4504 44.2354 25.4181 45.4135 24.9771C45.7706 24.8435 46.6116 26.7182 46.083 27.1197C42.5567 29.7982 36.3085 33.4968 33.8078 34.3063C32.2901 34.7976 26.0367 33.8888 22.1129 36.3596C18.4972 38.6364 12.9622 42.4749 12.9622 42.4749V29.9319L20.0595 24.7093C20.0595 24.7093 22.1575 25.7087 23.1841 25.4682C26.0409 24.7988 25.4531 22.7252 25.6838 22.656C28.3621 21.8528 28.2027 19.9095 28.3621 19.9331C29.5673 20.1119 32.6919 18.4601 30.6832 15.3355Z" fill="#E1AD3B"/>
<path d="M35.8611 34.9312C39.9677 33.5031 46.8865 28.3249 46.8865 28.3249L50.7699 30.4229V42.8767C50.7699 42.8767 35.2362 35.1486 35.8611 34.9312Z" fill="#E1AD3B"/>
<path d="M52.2876 45.5103V29.0838C52.2876 28.3249 56.2157 30.1553 56.2157 31.0924V47.6975C56.2157 48.3226 52.2876 46.2247 52.2876 45.5103Z" fill="#E1AD3B"/>
<path d="M63.1791 31.5388C63.1791 31.5388 58.0755 26.8916 57.8226 29.0838C57.6887 30.2446 57.7333 50.0635 57.8226 52.2954C57.921 54.7548 63.4915 56 63.4915 56L63.1791 31.5388Z" fill="#E1AD3B"/>
<path d="M11.3107 29.0391C11.3107 28.4145 7.56113 30.4231 7.56113 31.1371V47.7867C7.56113 48.5458 11.3107 46.4925 11.3107 45.5995V29.0391Z" fill="#E1AD3B"/>
<path d="M5.90955 29.2179C5.56599 27.1566 0.508453 31.5388 0.508453 31.5388L0.687002 55.6429C0.687002 55.6429 5.99883 54.4365 5.99883 52.1614C5.99883 45.8679 6.17738 30.8249 5.90955 29.2179Z" fill="#E1AD3B"/>
</svg>
