<svg width="64" height="64" viewBox="0 0 64 64" fill="none" xmlns="http://www.w3.org/2000/svg">
<path fill-rule="evenodd" clip-rule="evenodd" d="M23.7409 16.4664H39.8548C40.6605 16.4664 41.4662 9.69328 41.4662 9.69328H35.0206L33.4092 8H30.1865L28.5751 9.69328H22.1295C22.1295 9.69328 22.5324 16.4664 23.7409 16.4664ZM23.7409 19.853H39.8548C39.8548 19.853 50.1901 30.197 51.1345 38.9024C51.1781 39.3047 51.2253 39.6797 51.2703 40.0364L51.2703 40.0365L51.2703 40.0366C51.4823 41.7187 51.6432 42.9959 51.1345 44.8289C50.1983 48.2016 48.0934 49.5608 45.3835 51.3105C45.0277 51.5403 44.6615 51.7767 44.2861 52.0254C36.2855 57.3249 27.7131 57.3249 19.7125 52.0254C19.3371 51.7768 18.9709 51.5403 18.6151 51.3106L18.615 51.3105C15.9052 49.5608 13.8002 48.2016 12.8641 44.8289C12.3585 43.0073 12.5176 41.735 12.7261 40.0682C12.7719 39.702 12.8201 39.3167 12.8641 38.9024C13.7806 30.2804 23.7409 19.853 23.7409 19.853ZM36.6316 32.5526C37.0247 32.0362 37.0344 31.2827 36.6316 30.8593C36.2288 30.436 34.6674 29.404 33.4088 28.7427L33.4088 25.7795H30.1861V29.166C30.1861 29.166 28.1718 29.5894 26.9633 31.706C26.3158 32.84 26.8093 34.963 26.9633 35.0925C28.1674 36.1048 30.2353 36.6632 31.9621 37.1295C33.1239 37.4432 34.1313 37.7153 34.6173 38.0558C35.4027 38.606 35.2848 39.8943 34.6173 40.5957C33.8117 41.4424 31.3946 41.8657 29.7832 41.019C29.1539 40.6884 28.5747 39.3258 28.5747 39.3258C28.5747 39.3258 27.5603 39.1166 26.9633 39.3258C25.2748 39.9172 27.3661 43.1356 30.186 43.1356C30.5888 43.1356 30.1861 46.0989 30.1861 46.0989H33.4088V43.1356C33.4088 43.1356 35.0498 42.4303 35.8259 41.8657C36.6439 41.2705 36.6316 40.1724 36.6316 40.1724L36.6316 36.7858C36.6316 35.9753 35.0623 35.5527 33.3819 35.1003C31.552 34.6075 29.5903 34.0793 29.3803 32.9759C29.1952 32.0033 29.7832 31.706 29.7832 31.706L30.9917 30.8593C30.9917 30.8593 32.2893 30.404 33.006 31.2827C33.4281 31.8002 34.6173 32.5526 34.6173 32.5526C34.6173 32.5526 36.1402 33.1981 36.6316 32.5526Z" fill="#E1AE3C"/>
</svg>
