<svg width="25" height="24" viewBox="0 0 25 24" fill="none" xmlns="http://www.w3.org/2000/svg">
<path d="M12.5483 2.2C15.7483 2.2 16.1483 2.2 17.4483 2.3C20.7483 2.4 22.2483 4 22.3483 7.2C22.4483 8.5 22.4483 8.8 22.4483 12C22.4483 15.2 22.4483 15.6 22.3483 16.8C22.2483 20 20.6483 21.6 17.4483 21.7C16.1483 21.8 15.8483 21.8 12.5483 21.8C9.34834 21.8 8.94834 21.8 7.74834 21.7C4.44834 21.6 2.94834 20 2.84834 16.8C2.74834 15.5 2.74834 15.2 2.74834 12C2.74834 8.8 2.74834 8.4 2.84834 7.2C2.94834 4 4.54834 2.4 7.74834 2.3C8.94834 2.2 9.34834 2.2 12.5483 2.2ZM12.5483 0C9.24834 0 8.84834 0 7.64834 0.1C3.24834 0.3 0.84834 2.7 0.64834 7.1C0.54834 8.3 0.54834 8.7 0.54834 12C0.54834 15.3 0.54834 15.7 0.64834 16.9C0.84834 21.3 3.24834 23.7 7.64834 23.9C8.84834 24 9.24834 24 12.5483 24C15.8483 24 16.2483 24 17.4483 23.9C21.8483 23.7 24.2483 21.3 24.4483 16.9C24.5483 15.7 24.5483 15.3 24.5483 12C24.5483 8.7 24.5483 8.3 24.4483 7.1C24.2483 2.7 21.8483 0.3 17.4483 0.1C16.2483 0 15.8483 0 12.5483 0ZM12.5483 5.8C9.14834 5.8 6.34834 8.6 6.34834 12C6.34834 15.4 9.14834 18.2 12.5483 18.2C15.9483 18.2 18.7483 15.4 18.7483 12C18.7483 8.6 15.9483 5.8 12.5483 5.8ZM12.5483 16C10.3483 16 8.54834 14.2 8.54834 12C8.54834 9.8 10.3483 8 12.5483 8C14.7483 8 16.5483 9.8 16.5483 12C16.5483 14.2 14.7483 16 12.5483 16ZM18.9483 4.2C18.1483 4.2 17.5483 4.8 17.5483 5.6C17.5483 6.4 18.1483 7 18.9483 7C19.7483 7 20.3483 6.4 20.3483 5.6C20.3483 4.8 19.7483 4.2 18.9483 4.2Z" fill="white"/>
</svg>
