<svg width="96" height="41" viewBox="0 0 96 41" fill="none" xmlns="http://www.w3.org/2000/svg">
<path d="M72.0483 10.5C65.7587 14.0117 56.5483 20.5 56.5483 20.5C56.5483 20.5 68.8573 17.567 76.0483 14C84.4465 9.83419 95.5483 0 95.5483 0C95.5483 0 80.8248 5.59987 72.0483 10.5Z" fill="url(#paint0_linear_942_422)"/>
<path d="M87.0483 13C81.0483 15 58.0782 21.6838 55.5483 22C51.5483 22.5 66.8544 23.6545 73.5483 21.5C79.4788 19.5912 89.0483 12.3333 87.0483 13Z" fill="url(#paint1_linear_942_422)"/>
<path d="M79.0483 23.5C80.109 23.1464 56.5819 23.8389 54.5483 23.5C51.5483 23 61.6089 27.4405 66.5483 27.5C71.6734 27.5617 74.5483 25 79.0483 23.5Z" fill="url(#paint2_linear_942_422)"/>
<path d="M11.676 11.672C5.432 11.672 0.952 15.732 0.952 22.088C0.952 28.472 5.432 32.504 11.676 32.504C14.56 32.504 17.388 31.972 19.964 30.6V20.24H12.208V24.272H15.764V27.492C14.504 28.164 13.104 28.472 11.676 28.472C7.952 28.472 5.488 25.84 5.488 22.088C5.488 18.364 7.952 15.704 11.676 15.704C13.552 15.704 15.148 16.18 16.464 17.58L19.544 14.22C17.388 12.26 14.588 11.672 11.676 11.672ZM30.529 11.672C26.665 11.672 22.969 13.884 22.969 18.112C22.969 21.584 25.517 22.704 27.953 23.488C30.165 24.216 32.265 24.664 32.265 26.4C32.265 27.94 30.445 28.472 29.241 28.472C27.757 28.472 26.357 27.772 25.433 26.596L22.325 30.012C24.201 31.776 26.441 32.504 28.989 32.504C33.021 32.504 36.633 30.488 36.633 25.98C36.633 22.396 34.169 21.248 31.789 20.52C29.605 19.848 27.505 19.484 27.505 17.748C27.505 16.264 29.241 15.704 30.445 15.704C31.509 15.704 32.909 16.124 33.609 17.02L36.605 13.744C34.897 12.26 32.741 11.672 30.529 11.672ZM37.9271 12.176L45.8511 32H49.3511L57.5271 12.176H52.8511L47.8671 25.168H47.8111L42.9111 12.176H37.9271Z" fill="white"/>
<path d="M2.502 35.644C1.164 35.644 0.204 36.514 0.204 37.876C0.204 39.244 1.164 40.108 2.502 40.108C3.12 40.108 3.726 39.994 4.278 39.7V37.48H2.616V38.344H3.378V39.034C3.108 39.178 2.808 39.244 2.502 39.244C1.704 39.244 1.176 38.68 1.176 37.876C1.176 37.078 1.704 36.508 2.502 36.508C2.904 36.508 3.246 36.61 3.528 36.91L4.188 36.19C3.726 35.77 3.126 35.644 2.502 35.644ZM5.99592 40L6.34992 39.1H7.99992L8.36592 40H9.42192L7.57392 35.752H6.79992L4.96392 40H5.99592ZM7.15992 36.988L7.68192 38.308H6.64392L7.15992 36.988ZM10.1492 35.752V38.38C10.1492 39.304 10.7192 40.108 11.9432 40.108C13.1672 40.108 13.7312 39.304 13.7312 38.38V35.752H12.7952V38.338C12.7952 38.89 12.3872 39.244 11.9432 39.244C11.4452 39.244 11.0852 38.842 11.0852 38.338V35.752H10.1492ZM15.8325 40V38.302H16.2945L17.1825 40H18.3045L17.2245 38.206C17.8005 38.098 18.1425 37.666 18.1425 37.042C18.1425 36.01 17.3385 35.752 16.5705 35.752H14.8965V40H15.8325ZM15.8325 37.51V36.544H16.4685C16.9125 36.544 17.1705 36.688 17.1705 37.036C17.1705 37.438 16.8465 37.51 16.4145 37.51H15.8325ZM19.6811 40L20.0351 39.1H21.6851L22.0511 40H23.1071L21.2591 35.752H20.4851L18.6491 40H19.6811ZM20.8451 36.988L21.3671 38.308H20.3291L20.8451 36.988ZM23.4143 35.752L25.1123 40H25.8623L27.6143 35.752H26.6123L25.5443 38.536H25.5323L24.4823 35.752H23.4143ZM31.8743 35.644C31.0463 35.644 30.2543 36.118 30.2543 37.024C30.2543 37.768 30.8003 38.008 31.3223 38.176C31.7963 38.332 32.2463 38.428 32.2463 38.8C32.2463 39.13 31.8563 39.244 31.5983 39.244C31.2803 39.244 30.9803 39.094 30.7823 38.842L30.1163 39.574C30.5183 39.952 30.9983 40.108 31.5443 40.108C32.4083 40.108 33.1823 39.676 33.1823 38.71C33.1823 37.942 32.6543 37.696 32.1443 37.54C31.6763 37.396 31.2263 37.318 31.2263 36.946C31.2263 36.628 31.5983 36.508 31.8563 36.508C32.0843 36.508 32.3843 36.598 32.5343 36.79L33.1763 36.088C32.8103 35.77 32.3483 35.644 31.8743 35.644ZM35.1037 35.752H34.1677V40H35.1037V35.752ZM37.191 40V36.976H37.203L39.057 40H40.281V35.752H39.345V38.704H39.333L37.527 35.752H36.255V40H37.191ZM43.5176 35.644C42.1796 35.644 41.2196 36.514 41.2196 37.876C41.2196 39.244 42.1796 40.108 43.5176 40.108C44.1356 40.108 44.7416 39.994 45.2936 39.7V37.48H43.6316V38.344H44.3936V39.034C44.1236 39.178 43.8236 39.244 43.5176 39.244C42.7196 39.244 42.1916 38.68 42.1916 37.876C42.1916 37.078 42.7196 36.508 43.5176 36.508C43.9196 36.508 44.2616 36.61 44.5436 36.91L45.2036 36.19C44.7416 35.77 44.1416 35.644 43.5176 35.644ZM46.4175 40H47.3535V38.164H49.1715V40H50.1075V35.752H49.1715V37.336H47.3535V35.752H46.4175V40ZM50.8503 35.752L52.5483 40H53.2983L55.0503 35.752H54.0483L52.9803 38.536H52.9683L51.9183 35.752H50.8503ZM56.7189 35.752H55.7829V40H56.7189V35.752ZM59.5257 35.752L61.2237 40H61.9737L63.7257 35.752H62.7237L61.6557 38.536H61.6437L60.5937 35.752H59.5257ZM64.5063 40H67.5003V39.136H65.4423V38.272H67.2843V37.408H65.4423V36.616H67.3923V35.752H64.5063V40ZM69.4856 40V36.976H69.4976L71.3516 40H72.5756V35.752H71.6396V38.704H71.6276L69.8216 35.752H68.5496V40H69.4856ZM73.3522 36.58H74.5642V40H75.5002V36.58H76.7122V35.752H73.3522V36.58ZM77.4875 35.752V38.38C77.4875 39.304 78.0575 40.108 79.2815 40.108C80.5055 40.108 81.0695 39.304 81.0695 38.38V35.752H80.1335V38.338C80.1335 38.89 79.7255 39.244 79.2815 39.244C78.7835 39.244 78.4235 38.842 78.4235 38.338V35.752H77.4875ZM83.1707 40V38.302H83.6327L84.5207 40H85.6427L84.5627 38.206C85.1387 38.098 85.4807 37.666 85.4807 37.042C85.4807 36.01 84.6767 35.752 83.9087 35.752H82.2347V40H83.1707ZM83.1707 37.51V36.544H83.8067C84.2507 36.544 84.5087 36.688 84.5087 37.036C84.5087 37.438 84.1847 37.51 83.7527 37.51H83.1707ZM86.4614 40H89.4554V39.136H87.3974V38.272H89.2394V37.408H87.3974V36.616H89.3474V35.752H86.4614V40ZM91.9447 35.644C91.1167 35.644 90.3247 36.118 90.3247 37.024C90.3247 37.768 90.8707 38.008 91.3927 38.176C91.8667 38.332 92.3167 38.428 92.3167 38.8C92.3167 39.13 91.9267 39.244 91.6687 39.244C91.3507 39.244 91.0507 39.094 90.8527 38.842L90.1867 39.574C90.5887 39.952 91.0687 40.108 91.6147 40.108C92.4787 40.108 93.2527 39.676 93.2527 38.71C93.2527 37.942 92.7247 37.696 92.2147 37.54C91.7467 37.396 91.2967 37.318 91.2967 36.946C91.2967 36.628 91.6687 36.508 91.9267 36.508C92.1547 36.508 92.4547 36.598 92.6047 36.79L93.2467 36.088C92.8807 35.77 92.4187 35.644 91.9447 35.644Z" fill="white"/>
<defs>
<linearGradient id="paint0_linear_942_422" x1="55.5" y1="23" x2="96" y2="10.5" gradientUnits="userSpaceOnUse">
<stop stop-color="#E1AE3C"/>
<stop offset="1" stop-color="#DBB569" stop-opacity="0.5"/>
<stop offset="1" stop-color="#E1AE3C" stop-opacity="0.5"/>
</linearGradient>
<linearGradient id="paint1_linear_942_422" x1="55.5" y1="23" x2="96" y2="10.5" gradientUnits="userSpaceOnUse">
<stop stop-color="#E1AE3C"/>
<stop offset="1" stop-color="#DBB569" stop-opacity="0.5"/>
<stop offset="1" stop-color="#E1AE3C" stop-opacity="0.5"/>
</linearGradient>
<linearGradient id="paint2_linear_942_422" x1="55.5" y1="23" x2="96" y2="10.5" gradientUnits="userSpaceOnUse">
<stop stop-color="#E1AE3C"/>
<stop offset="1" stop-color="#DBB569" stop-opacity="0.5"/>
<stop offset="1" stop-color="#E1AE3C" stop-opacity="0.5"/>
</linearGradient>
</defs>
</svg>
