<svg width="31" height="24" viewBox="0 0 31 24" fill="none" xmlns="http://www.w3.org/2000/svg">
<path d="M9.87884 24C21.0229 24 27.1172 14.7674 27.1172 6.76166C27.1172 6.49935 27.1118 6.23838 27.0997 5.97842C28.2826 5.1233 29.3111 4.05592 30.1222 2.84143C29.0366 3.32373 27.8685 3.64852 26.6429 3.79495C27.8937 3.04496 28.8543 1.85801 29.3074 0.443344C28.1365 1.13758 26.8401 1.64205 25.4603 1.9141C24.3543 0.736555 22.7798 0 21.0377 0C17.6914 0 14.978 2.71346 14.978 6.05802C14.978 6.53361 15.0314 6.99576 15.1348 7.43944C10.0998 7.18653 5.63483 4.77535 2.64696 1.1097C2.12603 2.00479 1.82611 3.0453 1.82611 4.15467C1.82611 6.25652 2.89584 8.11218 4.52244 9.19804C3.52861 9.16747 2.5949 8.89408 1.77841 8.43999C1.77707 8.46517 1.77707 8.4907 1.77707 8.51723C1.77707 11.4517 3.86582 13.9015 6.63773 14.4567C6.12889 14.5954 5.59352 14.67 5.04068 14.67C4.6504 14.67 4.27088 14.631 3.90176 14.5608C4.67291 16.9676 6.90978 18.7195 9.56178 18.7689C7.4878 20.3941 4.87544 21.3624 2.03703 21.3624C1.54834 21.3624 1.06604 21.3346 0.591797 21.2785C3.27302 22.9968 6.45669 24 9.87884 24Z" fill="white"/>
</svg>
