<svg width="64" height="64" viewBox="0 0 64 64" fill="none" xmlns="http://www.w3.org/2000/svg">
<path d="M15.7986 8.29888C14.4718 7.96669 13.6185 7.9491 12.2962 8.29888C9.44592 9.05288 7.84467 11.0412 7.27103 13.9332C7.05119 15.0415 7.06034 15.7164 7.27103 16.8265C7.88285 20.0499 9.83612 22.2954 13.0576 22.9176C14.1086 23.1206 14.7507 23.136 15.7986 22.9176C18.8929 22.2727 20.5519 19.9342 21.1283 16.8265C21.3344 15.7155 21.3517 15.0408 21.1283 13.9332C20.5295 10.9642 18.7367 9.03449 15.7986 8.29888Z" fill="#E1AD3B"/>
<path d="M1.63674 30.6838C3.31185 26.2677 6.8142 24.4404 10.9257 24.4404C12.1858 24.4404 12.7122 25.4544 13.9713 25.5063C15.3998 25.5652 16.0485 24.5546 17.4737 24.4404C18.6651 24.3448 20.0626 24.4404 20.5192 24.7449C20.8238 24.948 20.6717 31.1406 24.6307 33.7293C25.528 34.316 22.042 34.643 22.042 34.643V32.3588C22.042 31.8831 20.8236 31.8831 20.8238 32.3588C20.824 32.9679 21.1285 35.1378 20.8238 35.2521C15.9511 37.0794 15.7986 40.125 15.0372 40.125C11.6735 40.125 8.79381 39.8205 8.79381 39.8205V32.3588C8.79381 31.8831 7.57551 31.8831 7.57559 32.3588C7.57578 33.577 7.57559 39.3636 7.57559 39.3636C7.57559 39.3636 2.30836 36.8549 1.63674 33.7293L1.62967 33.6964C1.38368 32.5519 1.21891 31.7853 1.63674 30.6838Z" fill="#E1AD3B"/>
<path d="M33.6151 15.456C32.1607 15.148 31.26 15.1356 29.8082 15.456C25.9448 16.3085 23.5252 19.0025 22.9557 22.9176C22.8102 23.918 22.7459 24.5174 22.9557 25.5063C24.0218 30.5315 25.24 32.3588 29.8082 34.643C30.7221 35.0999 32.5494 35.0998 33.6151 34.643C37.6549 32.9114 40.2455 30.0081 40.7722 25.5063C40.8897 24.5022 40.919 23.9178 40.7722 22.9176C40.1858 18.9227 37.5653 16.2924 33.6151 15.456Z" fill="#E1AD3B"/>
<path d="M31.6355 37.2317C29.6015 37.2461 28.7125 35.686 26.6105 35.8612C21.1287 36.318 17.6261 38.7545 15.6463 43.6274C15.2751 44.5411 15.4605 45.9854 15.7986 47.4344C16.6414 51.0464 22.042 54.5914 22.042 54.5914V46.5207C22.042 45.7476 24.0216 45.7476 24.0216 46.5207V55.2005C24.0216 56.2665 39.7063 56.2665 39.7063 55.2005V46.5207C39.7063 45.6881 41.8382 45.6881 41.8382 46.5207V54.5914C41.8382 54.5914 47.7178 51.174 48.5384 47.4344C48.8825 45.866 48.9151 44.8837 48.5384 43.3228C47.4726 38.9068 41.077 35.2521 37.4221 35.2521C35.8995 35.2521 34.0238 37.2148 31.6355 37.2317Z" fill="#E1AD3B"/>
<path d="M51.584 8.29888C50.156 7.8852 49.2135 7.91584 47.777 8.29888C44.8505 9.07924 43.0461 10.9642 42.4473 13.9332C42.2239 15.0408 42.2412 15.7155 42.4473 16.8265C43.0238 19.9342 44.7257 22.0929 47.777 22.9176C49.2122 23.3055 50.1569 23.3344 51.584 22.9176C54.5081 22.0636 55.9182 19.8247 56.4569 16.8265C56.6567 15.7144 56.6746 15.0419 56.4569 13.9332C55.8963 11.0786 54.3782 9.10835 51.584 8.29888Z" fill="#E1AD3B"/>
<path d="M46.1021 24.4404C44.8976 24.2982 43.3783 24.3489 43.2087 24.7449C42.752 25.8109 43.2089 30.227 39.5542 33.5771C38.8312 34.2398 41.6859 34.4907 41.6859 34.4907V32.3588C41.6859 31.8831 42.9041 31.8831 42.9041 32.3588C42.9041 33.1202 42.5997 34.643 42.9041 34.9476C43.5851 35.6289 48.3863 37.5363 49.7566 40.125C49.9985 40.5819 54.9341 39.8205 54.9341 39.3636V32.3588C54.9341 31.7641 56.4569 31.7641 56.4569 32.3588V39.3636C56.4569 40.125 61.7868 36.0135 62.3957 33.7293C62.6868 32.6376 62.7005 31.6827 62.3957 30.836C61.2995 27.7905 57.0662 24.2881 53.2592 24.4404C51.6243 24.5058 50.774 25.6845 49.1475 25.5063C47.9047 25.3701 47.3438 24.5869 46.1021 24.4404Z" fill="#E1AD3B"/>
<path d="M15.7986 8.29888C14.4718 7.96669 13.6185 7.9491 12.2962 8.29888C9.44592 9.05288 7.84467 11.0412 7.27103 13.9332C7.05119 15.0415 7.06034 15.7164 7.27103 16.8265C7.88285 20.0499 9.83612 22.2954 13.0576 22.9176C14.1086 23.1206 14.7507 23.136 15.7986 22.9176C18.8929 22.2727 20.5519 19.9342 21.1283 16.8265C21.3344 15.7155 21.3517 15.0408 21.1283 13.9332C20.5295 10.9642 18.7367 9.03449 15.7986 8.29888Z" stroke="#E1AE3C"/>
<path d="M1.63674 30.6838C3.31185 26.2677 6.8142 24.4404 10.9257 24.4404C12.1858 24.4404 12.7122 25.4544 13.9713 25.5063C15.3998 25.5652 16.0485 24.5546 17.4737 24.4404C18.6651 24.3448 20.0626 24.4404 20.5192 24.7449C20.8238 24.948 20.6717 31.1406 24.6307 33.7293C25.528 34.316 22.042 34.643 22.042 34.643V32.3588C22.042 31.8831 20.8236 31.8831 20.8238 32.3588C20.824 32.9679 21.1285 35.1378 20.8238 35.2521C15.9511 37.0794 15.7986 40.125 15.0372 40.125C11.6735 40.125 8.79381 39.8205 8.79381 39.8205V32.3588C8.79381 31.8831 7.57551 31.8831 7.57559 32.3588C7.57578 33.577 7.57559 39.3636 7.57559 39.3636C7.57559 39.3636 2.30836 36.8549 1.63674 33.7293L1.62967 33.6964C1.38368 32.5519 1.21891 31.7853 1.63674 30.6838Z" stroke="#E1AE3C"/>
<path d="M33.6151 15.456C32.1607 15.148 31.26 15.1356 29.8082 15.456C25.9448 16.3085 23.5252 19.0025 22.9557 22.9176C22.8102 23.918 22.7459 24.5174 22.9557 25.5063C24.0218 30.5315 25.24 32.3588 29.8082 34.643C30.7221 35.0999 32.5494 35.0998 33.6151 34.643C37.6549 32.9114 40.2455 30.0081 40.7722 25.5063C40.8897 24.5022 40.919 23.9178 40.7722 22.9176C40.1858 18.9227 37.5653 16.2924 33.6151 15.456Z" stroke="#E1AE3C"/>
<path d="M31.6355 37.2317C29.6015 37.2461 28.7125 35.686 26.6105 35.8612C21.1287 36.318 17.6261 38.7545 15.6463 43.6274C15.2751 44.5411 15.4605 45.9854 15.7986 47.4344C16.6414 51.0464 22.042 54.5914 22.042 54.5914V46.5207C22.042 45.7476 24.0216 45.7476 24.0216 46.5207V55.2005C24.0216 56.2665 39.7063 56.2665 39.7063 55.2005V46.5207C39.7063 45.6881 41.8382 45.6881 41.8382 46.5207V54.5914C41.8382 54.5914 47.7178 51.174 48.5384 47.4344C48.8825 45.866 48.9151 44.8837 48.5384 43.3228C47.4726 38.9068 41.077 35.2521 37.4221 35.2521C35.8995 35.2521 34.0238 37.2148 31.6355 37.2317Z" stroke="#E1AE3C"/>
<path d="M51.584 8.29888C50.156 7.8852 49.2135 7.91584 47.777 8.29888C44.8505 9.07924 43.0461 10.9642 42.4473 13.9332C42.2239 15.0408 42.2412 15.7155 42.4473 16.8265C43.0238 19.9342 44.7257 22.0929 47.777 22.9176C49.2122 23.3055 50.1569 23.3344 51.584 22.9176C54.5081 22.0636 55.9182 19.8247 56.4569 16.8265C56.6567 15.7144 56.6746 15.0419 56.4569 13.9332C55.8963 11.0786 54.3782 9.10835 51.584 8.29888Z" stroke="#E1AE3C"/>
<path d="M46.1021 24.4404C44.8976 24.2982 43.3783 24.3489 43.2087 24.7449C42.752 25.8109 43.2089 30.227 39.5542 33.5771C38.8312 34.2398 41.6859 34.4907 41.6859 34.4907V32.3588C41.6859 31.8831 42.9041 31.8831 42.9041 32.3588C42.9041 33.1202 42.5997 34.643 42.9041 34.9476C43.5851 35.6289 48.3863 37.5363 49.7566 40.125C49.9985 40.5819 54.9341 39.8205 54.9341 39.3636V32.3588C54.9341 31.7641 56.4569 31.7641 56.4569 32.3588V39.3636C56.4569 40.125 61.7868 36.0135 62.3957 33.7293C62.6868 32.6376 62.7005 31.6827 62.3957 30.836C61.2995 27.7905 57.0662 24.2881 53.2592 24.4404C51.6243 24.5058 50.774 25.6845 49.1475 25.5063C47.9047 25.3701 47.3438 24.5869 46.1021 24.4404Z" stroke="#E1AE3C"/>
</svg>
