<svg width="64" height="64" viewBox="0 0 64 64" fill="none" xmlns="http://www.w3.org/2000/svg">
<path d="M17.0456 23.3184C15.7042 23.9376 15.1218 24.9316 14.8205 26.378C14.1252 29.7157 21.7737 33.8878 22.7475 33.8878C23.7214 33.8878 25.4495 31.3845 25.2508 31.1064C23.8598 29.1594 18.8534 22.484 17.0456 23.3184Z" fill="#E1AD3B"/>
<path d="M22.0522 17.4775C20.5631 17.312 19.5513 18.6481 19.2708 20.1198C18.7141 23.0403 25.2508 29.1594 27.0587 29.1594C28.518 29.1594 29.5691 27.9704 29.7011 26.5171C29.9789 23.4575 23.3035 17.6165 22.0522 17.4775Z" fill="#E1AD3B"/>
<path d="M28.5885 21.2324C28.3369 22.9958 25.5286 18.0338 24.8336 15.9477C24.1291 13.8333 27.6147 11.4974 29.0057 12.0537C30.7618 12.756 34.5685 17.6165 33.3169 17.4775C31.7961 17.3085 28.8663 19.2854 28.5885 21.2324Z" fill="#E1AD3B"/>
<path d="M40.4095 14.8351C40.7495 15.3915 34.8876 17.2811 34.7076 16.9212C33.7338 14.9743 31.7868 13.3054 31.509 10.9412C31.3456 9.55041 34.7076 7.3949 35.9592 8.15975C38.4623 9.6893 38.8797 12.3319 40.4095 14.8351Z" fill="#E1AD3B"/>
<path d="M41.9393 16.504C38.3323 16.2464 33.0384 18.3119 30.9527 21.2324C29.6756 23.0206 32.4088 25.9486 34.5685 25.5436C36.7933 25.1263 38.184 23.8747 38.8797 24.1529C39.9399 24.5768 40.6873 26.5171 40.1313 26.7952C38.8627 27.4299 33.8206 26.6885 30.3964 28.4641C26.8847 30.285 25.2508 35.4175 23.3038 35.6957C20.3161 36.1226 17.6898 30.9037 16.6284 31.8018C14.8205 33.3315 18.7141 38.4771 20.2443 40.9804C23.5163 46.3336 25.9461 56 25.9461 56L43.33 52.5232L38.6016 43.9009C38.6016 43.9009 50.0979 33.8878 49.1709 27.3515C48.4561 22.3106 45.8329 16.7821 41.9393 16.504Z" fill="#E1AD3B"/>
</svg>
