<svg width="64" height="64" viewBox="0 0 64 64" fill="none" xmlns="http://www.w3.org/2000/svg">
<path d="M29.1439 20.7179C26.0869 21.5714 24.338 22.8143 22.5041 25.4048C20.4233 28.3441 19.9845 30.8134 20.421 34.3881C20.8564 37.9542 24.0422 39.9865 24.5872 42.5902C25.759 48.1886 28.7533 48.9696 28.7533 48.9696H35.6535C35.6535 48.9696 39.0386 46.8866 39.4291 42.1996C39.5809 40.377 43.3498 37.8578 43.8556 34.3881C44.3433 31.0428 43.8226 28.7936 42.0329 25.9256C40.3303 23.1972 38.7253 21.6702 35.6535 20.7179C33.2254 19.9651 31.5924 20.0343 29.1439 20.7179Z" fill="#E1AD3B"/>
<path d="M36.3045 50.6621H27.9722C27.9722 50.6621 27.3825 52.864 27.9722 54.0471C28.5036 55.1133 30.3156 56 30.3156 56H33.4402C33.4402 56 35.6794 55.248 36.3045 54.0471C36.9148 52.8745 36.3045 50.6621 36.3045 50.6621Z" fill="#E1AD3B"/>
<path d="M45.5482 12.3857C44.1161 14.0776 43.4652 14.9889 42.4236 16.2915C41.9276 16.9117 43.4546 18.1837 43.9859 17.5934C45.1577 16.2915 45.3052 15.7701 47.1105 13.6876C47.6308 13.0875 46.0613 11.7795 45.5482 12.3857Z" fill="#E1AD3B"/>
<path d="M54.4013 24.103C52.188 24.8835 51.2767 25.2741 49.7144 25.9256C49.1043 26.18 49.7383 27.6972 50.3653 27.488C51.9277 26.9666 52.9692 26.576 55.0523 25.9256C55.7737 25.7003 55.1141 23.8516 54.4013 24.103Z" fill="#E1AD3B"/>
<path d="M55.0523 39.0751C53.2296 38.2934 51.5371 37.6424 50.3653 37.2524C49.6482 37.0137 49.0853 38.6562 49.7144 39.0751C50.4955 39.5953 52.3182 39.9859 54.4013 40.6374C55.0321 40.8347 55.6597 39.3356 55.0523 39.0751Z" fill="#E1AD3B"/>
<path d="M33.18 13.297C33.18 14.1105 31.0969 14.1105 31.0969 13.297V8.61012C31.0969 7.79663 33.18 7.79663 33.18 8.61012V13.297Z" fill="#E1AD3B"/>
<path d="M18.8588 12.2555C18.3745 11.6261 16.8198 12.9222 17.2965 13.5574C18.0777 14.5984 18.7286 15.6399 20.421 17.5934C20.9159 18.1647 22.3002 16.9011 21.8532 16.2915C20.421 14.338 20.1607 13.9474 18.8588 12.2555Z" fill="#E1AD3B"/>
<path d="M8.9642 25.6653C8.26839 25.4126 8.78917 23.5898 9.48497 23.8426C10.9168 24.3628 12.6093 24.8835 14.4323 25.4048C15.159 25.6126 14.5171 27.4009 13.7813 27.2276C11.568 26.7062 10.3962 26.1855 8.9642 25.6653Z" fill="#E1AD3B"/>
<path d="M8.99225 38.8042L8.9642 38.8147C8.28274 39.0707 9.06601 40.7688 9.74535 40.5072C11.4375 39.8557 11.8281 39.7255 14.1719 38.8147C14.8716 38.5428 13.9548 36.8366 13.2605 37.1222C11.0668 38.0248 10.0242 38.4165 8.99225 38.8042Z" fill="#E1AD3B"/>
</svg>
