<svg width="25" height="24" viewBox="0 0 25 24" fill="none" xmlns="http://www.w3.org/2000/svg">
<path d="M12.5403 2.2C15.7403 2.2 16.1403 2.2 17.4403 2.3C20.7403 2.4 22.2403 4 22.3403 7.2C22.4403 8.5 22.4403 8.8 22.4403 12C22.4403 15.2 22.4403 15.6 22.3403 16.8C22.2403 20 20.6403 21.6 17.4403 21.7C16.1403 21.8 15.8403 21.8 12.5403 21.8C9.34028 21.8 8.94028 21.8 7.74028 21.7C4.44028 21.6 2.94028 20 2.84028 16.8C2.74028 15.5 2.74028 15.2 2.74028 12C2.74028 8.8 2.74028 8.4 2.84028 7.2C2.94028 4 4.54028 2.4 7.74028 2.3C8.94028 2.2 9.34028 2.2 12.5403 2.2ZM12.5403 0C9.24028 0 8.84028 0 7.64028 0.1C3.24028 0.3 0.840283 2.7 0.640283 7.1C0.540283 8.3 0.540283 8.7 0.540283 12C0.540283 15.3 0.540283 15.7 0.640283 16.9C0.840283 21.3 3.24028 23.7 7.64028 23.9C8.84028 24 9.24028 24 12.5403 24C15.8403 24 16.2403 24 17.4403 23.9C21.8403 23.7 24.2403 21.3 24.4403 16.9C24.5403 15.7 24.5403 15.3 24.5403 12C24.5403 8.7 24.5403 8.3 24.4403 7.1C24.2403 2.7 21.8403 0.3 17.4403 0.1C16.2403 0 15.8403 0 12.5403 0ZM12.5403 5.8C9.14028 5.8 6.34028 8.6 6.34028 12C6.34028 15.4 9.14028 18.2 12.5403 18.2C15.9403 18.2 18.7403 15.4 18.7403 12C18.7403 8.6 15.9403 5.8 12.5403 5.8ZM12.5403 16C10.3403 16 8.54028 14.2 8.54028 12C8.54028 9.8 10.3403 8 12.5403 8C14.7403 8 16.5403 9.8 16.5403 12C16.5403 14.2 14.7403 16 12.5403 16ZM18.9403 4.2C18.1403 4.2 17.5403 4.8 17.5403 5.6C17.5403 6.4 18.1403 7 18.9403 7C19.7403 7 20.3403 6.4 20.3403 5.6C20.3403 4.8 19.7403 4.2 18.9403 4.2Z" fill="black"/>
</svg>
