<svg width="330" height="120" viewBox="0 0 330 120" fill="none" xmlns="http://www.w3.org/2000/svg">
<path d="M190.792 27.9107C174.073 37.2453 149.59 54.4923 149.59 54.4923C149.59 54.4923 182.309 46.696 201.424 37.2142C223.748 26.1409 253.259 0 253.259 0C253.259 0 214.121 14.8854 190.792 27.9107Z" fill="url(#paint0_linear_1098_3122)"/>
<path d="M230.664 34.5561C214.715 39.8724 153.657 57.6389 146.932 58.4795C136.299 59.8086 176.985 62.8776 194.779 57.1504C210.543 52.0766 235.981 32.784 230.664 34.5561Z" fill="url(#paint1_linear_1098_3122)"/>
<path d="M209.399 62.4668C212.218 61.5269 149.679 63.3677 144.274 62.4668C136.299 61.1377 163.042 72.9412 176.172 73.0994C189.795 73.2635 197.437 66.454 209.399 62.4668Z" fill="url(#paint2_linear_1098_3122)"/>
<path d="M30.3128 31.0264C13.7152 31.0264 1.80664 41.8185 1.80664 58.7138C1.80664 75.6835 13.7152 86.4012 30.3128 86.4012C37.9789 86.4012 45.4962 84.987 52.3436 81.34V53.8015H31.7269V64.5192H41.1793V73.0785C37.83 74.8648 34.1086 75.6835 30.3128 75.6835C20.4138 75.6835 13.8641 68.6872 13.8641 58.7138C13.8641 48.8148 20.4138 41.7441 30.3128 41.7441C35.2995 41.7441 39.5419 43.0094 43.04 46.7308L51.2272 37.7994C45.4962 32.5894 38.0533 31.0264 30.3128 31.0264Z" fill="black"/>
<path d="M80.427 31.0264C70.1558 31.0264 60.3313 36.9062 60.3313 48.1449C60.3313 57.3741 67.1043 60.3512 73.5795 62.4352C79.4594 64.3703 85.0415 65.5612 85.0415 70.1758C85.0415 74.2693 80.2037 75.6835 77.0033 75.6835C73.0585 75.6835 69.3371 73.8228 66.881 70.6968L58.6194 79.777C63.6061 84.466 69.5604 86.4012 76.3334 86.4012C87.0511 86.4012 96.6524 81.0423 96.6524 69.0593C96.6524 59.5325 90.1027 56.4809 83.7763 54.5458C77.9708 52.7595 72.3887 51.7919 72.3887 47.1774C72.3887 43.2326 77.0033 41.7441 80.2037 41.7441C83.032 41.7441 86.7534 42.8605 88.6141 45.2422L96.578 36.5341C92.0378 32.5894 86.3068 31.0264 80.427 31.0264Z" fill="black"/>
<path d="M100.092 32.3661L121.156 85.0615H130.459L152.192 32.3661H139.763L126.514 66.9009H126.366L113.341 32.3661H100.092Z" fill="black"/>
<path d="M8.1446 104.178C3.40245 104.178 0 107.262 0 112.089C0 116.937 3.40245 120 8.1446 120C10.3349 120 12.4827 119.596 14.4391 118.554V110.685H8.54864V113.748H11.2493V116.193C10.2924 116.703 9.22913 116.937 8.1446 116.937C5.31632 116.937 3.44498 114.938 3.44498 112.089C3.44498 109.261 5.31632 107.24 8.1446 107.24C9.56938 107.24 10.7815 107.602 11.781 108.665L14.1201 106.113C12.4827 104.625 10.3562 104.178 8.1446 104.178Z" fill="black"/>
<path d="M20.5278 119.617L21.7825 116.427H27.6304L28.9276 119.617H32.6703L26.1206 104.561H23.3774L16.8702 119.617H20.5278ZM24.6533 108.942L26.5034 113.62H22.8245L24.6533 108.942Z" fill="black"/>
<path d="M35.2479 104.561V113.875C35.2479 117.15 37.2681 120 41.6062 120C45.9443 120 47.9432 117.15 47.9432 113.875V104.561H44.6259V113.726C44.6259 115.683 43.1798 116.937 41.6062 116.937C39.8412 116.937 38.5653 115.513 38.5653 113.726V104.561H35.2479Z" fill="black"/>
<path d="M55.3906 119.617V113.599H57.028L60.1753 119.617H64.1519L60.3241 113.258C62.3656 112.876 63.5777 111.345 63.5777 109.133C63.5777 105.475 60.7282 104.561 58.0062 104.561H52.0732V119.617H55.3906ZM55.3906 110.792V107.368H57.6447C59.2183 107.368 60.1327 107.878 60.1327 109.112C60.1327 110.537 58.9844 110.792 57.4533 110.792H55.3906Z" fill="black"/>
<path d="M69.0309 119.617L70.2856 116.427H76.1335L77.4307 119.617H81.1734L74.6237 104.561H71.8805L65.3733 119.617H69.0309ZM73.1564 108.942L75.0065 113.62H71.3276L73.1564 108.942Z" fill="black"/>
<path d="M82.2624 104.561L88.2805 119.617H90.9387L97.1481 104.561H93.5968L89.8116 114.428H89.7691L86.0476 104.561H82.2624Z" fill="black"/>
<path d="M112.246 104.178C109.312 104.178 106.505 105.858 106.505 109.069C106.505 111.706 108.44 112.557 110.29 113.152C111.97 113.705 113.565 114.045 113.565 115.364C113.565 116.533 112.183 116.937 111.268 116.937C110.141 116.937 109.078 116.406 108.376 115.513L106.016 118.107C107.441 119.447 109.142 120 111.077 120C114.139 120 116.882 118.468 116.882 115.045C116.882 112.323 115.011 111.451 113.203 110.898C111.545 110.388 109.95 110.111 109.95 108.793C109.95 107.666 111.268 107.24 112.183 107.24C112.991 107.24 114.054 107.559 114.586 108.24L116.861 105.752C115.564 104.625 113.926 104.178 112.246 104.178Z" fill="black"/>
<path d="M123.692 104.561H120.374V119.617H123.692V104.561Z" fill="black"/>
<path d="M131.09 119.617V108.899H131.133L137.704 119.617H142.042V104.561H138.724V115.024H138.682L132.281 104.561H127.773V119.617H131.09Z" fill="black"/>
<path d="M153.513 104.178C148.771 104.178 145.368 107.262 145.368 112.089C145.368 116.937 148.771 120 153.513 120C155.703 120 157.851 119.596 159.807 118.554V110.685H153.917V113.748H156.617V116.193C155.661 116.703 154.597 116.937 153.513 116.937C150.684 116.937 148.813 114.938 148.813 112.089C148.813 109.261 150.684 107.24 153.513 107.24C154.938 107.24 156.15 107.602 157.149 108.665L159.488 106.113C157.851 104.625 155.724 104.178 153.513 104.178Z" fill="black"/>
<path d="M163.791 119.617H167.108V113.11H173.551V119.617H176.869V104.561H173.551V110.175H167.108V104.561H163.791V119.617Z" fill="black"/>
<path d="M179.501 104.561L185.519 119.617H188.177L194.387 104.561H190.836L187.05 114.428H187.008L183.286 104.561H179.501Z" fill="black"/>
<path d="M200.301 104.561H196.983V119.617H200.301V104.561Z" fill="black"/>
<path d="M210.249 104.561L216.267 119.617H218.925L225.134 104.561H221.583L217.798 114.428H217.755L214.034 104.561H210.249Z" fill="black"/>
<path d="M227.901 119.617H238.512V116.555H231.218V113.492H237.747V110.43H231.218V107.623H238.13V104.561H227.901V119.617Z" fill="black"/>
<path d="M245.549 119.617V108.899H245.591L252.162 119.617H256.5V104.561H253.183V115.024H253.14L246.74 104.561H242.231V119.617H245.549Z" fill="black"/>
<path d="M259.253 107.496H263.548V119.617H266.866V107.496H271.161V104.561H259.253V107.496Z" fill="black"/>
<path d="M273.909 104.561V113.875C273.909 117.15 275.929 120 280.267 120C284.606 120 286.605 117.15 286.605 113.875V104.561H283.287V113.726C283.287 115.683 281.841 116.937 280.267 116.937C278.502 116.937 277.227 115.513 277.227 113.726V104.561H273.909Z" fill="black"/>
<path d="M294.052 119.617V113.599H295.689L298.837 119.617H302.813L298.985 113.258C301.027 112.876 302.239 111.345 302.239 109.133C302.239 105.475 299.389 104.561 296.667 104.561H290.734V119.617H294.052ZM294.052 110.792V107.368H296.306C297.88 107.368 298.794 107.878 298.794 109.112C298.794 110.537 297.646 110.792 296.115 110.792H294.052Z" fill="black"/>
<path d="M305.715 119.617H316.326V116.555H309.032V113.492H315.56V110.43H309.032V107.623H315.943V104.561H305.715V119.617Z" fill="black"/>
<path d="M325.149 104.178C322.214 104.178 319.407 105.858 319.407 109.069C319.407 111.706 321.342 112.557 323.192 113.152C324.872 113.705 326.467 114.045 326.467 115.364C326.467 116.533 325.085 116.937 324.17 116.937C323.043 116.937 321.98 116.406 321.278 115.513L318.918 118.107C320.343 119.447 322.044 120 323.979 120C327.041 120 329.784 118.468 329.784 115.045C329.784 112.323 327.913 111.451 326.105 110.898C324.447 110.388 322.852 110.111 322.852 108.793C322.852 107.666 324.17 107.24 325.085 107.24C325.893 107.24 326.956 107.559 327.488 108.24L329.763 105.752C328.466 104.625 326.828 104.178 325.149 104.178Z" fill="black"/>
<defs>
<linearGradient id="paint0_linear_1098_3122" x1="146.804" y1="61.1377" x2="254.459" y2="27.9107" gradientUnits="userSpaceOnUse">
<stop stop-color="#E1AE3C"/>
<stop offset="1" stop-color="#DBB569" stop-opacity="0.5"/>
<stop offset="1" stop-color="#E1AE3C" stop-opacity="0.5"/>
</linearGradient>
<linearGradient id="paint1_linear_1098_3122" x1="146.804" y1="61.1377" x2="254.459" y2="27.9107" gradientUnits="userSpaceOnUse">
<stop stop-color="#E1AE3C"/>
<stop offset="1" stop-color="#DBB569" stop-opacity="0.5"/>
<stop offset="1" stop-color="#E1AE3C" stop-opacity="0.5"/>
</linearGradient>
<linearGradient id="paint2_linear_1098_3122" x1="146.804" y1="61.1377" x2="254.459" y2="27.9107" gradientUnits="userSpaceOnUse">
<stop stop-color="#E1AE3C"/>
<stop offset="1" stop-color="#DBB569" stop-opacity="0.5"/>
<stop offset="1" stop-color="#E1AE3C" stop-opacity="0.5"/>
</linearGradient>
</defs>
</svg>
