<svg width="31" height="24" viewBox="0 0 31 24" fill="none" xmlns="http://www.w3.org/2000/svg">
<path d="M9.87078 24C21.0148 24 27.1091 14.7674 27.1091 6.76166C27.1091 6.49935 27.1037 6.23838 27.0917 5.97842C28.2746 5.1233 29.303 4.05592 30.1141 2.84143C29.0286 3.32373 27.8604 3.64852 26.6349 3.79495C27.8856 3.04496 28.8462 1.85801 29.2993 0.443344C28.1285 1.13758 26.832 1.64205 25.4523 1.9141C24.3463 0.736555 22.7717 0 21.0296 0C17.6834 0 14.9699 2.71346 14.9699 6.05802C14.9699 6.53361 15.0233 6.99576 15.1267 7.43944C10.0918 7.18653 5.62677 4.77535 2.63891 1.1097C2.11798 2.00479 1.81805 3.0453 1.81805 4.15467C1.81805 6.25652 2.88778 8.11218 4.51438 9.19804C3.52056 9.16747 2.58685 8.89408 1.77036 8.43999C1.76901 8.46517 1.76901 8.4907 1.76901 8.51723C1.76901 11.4517 3.85776 13.9015 6.62967 14.4567C6.12083 14.5954 5.58546 14.67 5.03262 14.67C4.64235 14.67 4.26282 14.631 3.8937 14.5608C4.66485 16.9676 6.90172 18.7195 9.55372 18.7689C7.47975 20.3941 4.86738 21.3624 2.02897 21.3624C1.54029 21.3624 1.05798 21.3346 0.58374 21.2785C3.26496 22.9968 6.44864 24 9.87078 24Z" fill="black"/>
</svg>
