<svg width="100" height="86" viewBox="0 0 100 86" fill="none" xmlns="http://www.w3.org/2000/svg">
<rect width="4" height="2" fill="#4D4D4D"/>
<rect x="8" width="4" height="2" fill="#4D4D4D"/>
<rect x="16" width="4" height="2" fill="#4D4D4D"/>
<rect x="24" width="4" height="2" fill="#4D4D4D"/>
<rect x="32" width="4" height="2" fill="#4D4D4D"/>
<rect x="40" width="4" height="2" fill="#4D4D4D"/>
<rect x="48" width="4" height="2" fill="#4D4D4D"/>
<rect x="56" width="4" height="2" fill="#4D4D4D"/>
<rect x="64" width="4" height="2" fill="#4D4D4D"/>
<rect x="72" width="4" height="2" fill="#4D4D4D"/>
<rect x="80" width="4" height="2" fill="#4D4D4D"/>
<rect x="88" width="4" height="2" fill="#4D4D4D"/>
<rect x="96" width="4" height="2" fill="#4D4D4D"/>
<rect y="6" width="4" height="2" fill="#4D4D4D"/>
<rect x="8" y="6" width="4" height="2" fill="#4D4D4D"/>
<rect x="16" y="6" width="4" height="2" fill="#4D4D4D"/>
<rect x="24" y="6" width="4" height="2" fill="#4D4D4D"/>
<rect x="32" y="6" width="4" height="2" fill="#4D4D4D"/>
<rect x="40" y="6" width="4" height="2" fill="#4D4D4D"/>
<rect x="48" y="6" width="4" height="2" fill="#4D4D4D"/>
<rect x="56" y="6" width="4" height="2" fill="#4D4D4D"/>
<rect x="64" y="6" width="4" height="2" fill="#4D4D4D"/>
<rect x="72" y="6" width="4" height="2" fill="#4D4D4D"/>
<rect x="80" y="6" width="4" height="2" fill="#4D4D4D"/>
<rect x="88" y="6" width="4" height="2" fill="#4D4D4D"/>
<rect x="96" y="6" width="4" height="2" fill="#4D4D4D"/>
<rect y="12" width="4" height="2" fill="#4D4D4D"/>
<rect x="8" y="12" width="4" height="2" fill="#4D4D4D"/>
<rect x="16" y="12" width="4" height="2" fill="#4D4D4D"/>
<rect x="24" y="12" width="4" height="2" fill="#4D4D4D"/>
<rect x="32" y="12" width="4" height="2" fill="#4D4D4D"/>
<rect x="40" y="12" width="4" height="2" fill="#4D4D4D"/>
<rect x="48" y="12" width="4" height="2" fill="#4D4D4D"/>
<rect x="56" y="12" width="4" height="2" fill="#4D4D4D"/>
<rect x="64" y="12" width="4" height="2" fill="#4D4D4D"/>
<rect x="72" y="12" width="4" height="2" fill="#4D4D4D"/>
<rect x="80" y="12" width="4" height="2" fill="#4D4D4D"/>
<rect x="88" y="12" width="4" height="2" fill="#4D4D4D"/>
<rect x="96" y="12" width="4" height="2" fill="#4D4D4D"/>
<rect y="18" width="4" height="2" fill="#4D4D4D"/>
<rect x="8" y="18" width="4" height="2" fill="#4D4D4D"/>
<rect x="16" y="18" width="4" height="2" fill="#4D4D4D"/>
<rect x="24" y="18" width="4" height="2" fill="#4D4D4D"/>
<rect x="32" y="18" width="4" height="2" fill="#4D4D4D"/>
<rect x="40" y="18" width="4" height="2" fill="#4D4D4D"/>
<rect x="48" y="18" width="4" height="2" fill="#4D4D4D"/>
<rect x="56" y="18" width="4" height="2" fill="#4D4D4D"/>
<rect x="64" y="18" width="4" height="2" fill="#4D4D4D"/>
<rect x="72" y="18" width="4" height="2" fill="#4D4D4D"/>
<rect x="80" y="18" width="4" height="2" fill="#4D4D4D"/>
<rect x="88" y="18" width="4" height="2" fill="#4D4D4D"/>
<rect x="96" y="18" width="4" height="2" fill="#4D4D4D"/>
<rect y="24" width="4" height="2" fill="#4D4D4D"/>
<rect x="8" y="24" width="4" height="2" fill="#4D4D4D"/>
<rect x="16" y="24" width="4" height="2" fill="#4D4D4D"/>
<rect x="24" y="24" width="4" height="2" fill="#4D4D4D"/>
<rect x="32" y="24" width="4" height="2" fill="#4D4D4D"/>
<rect x="40" y="24" width="4" height="2" fill="#4D4D4D"/>
<rect x="48" y="24" width="4" height="2" fill="#4D4D4D"/>
<rect x="56" y="24" width="4" height="2" fill="#4D4D4D"/>
<rect x="64" y="24" width="4" height="2" fill="#4D4D4D"/>
<rect x="72" y="24" width="4" height="2" fill="#4D4D4D"/>
<rect x="80" y="24" width="4" height="2" fill="#4D4D4D"/>
<rect x="88" y="24" width="4" height="2" fill="#4D4D4D"/>
<rect x="96" y="24" width="4" height="2" fill="#4D4D4D"/>
<rect y="30" width="4" height="2" fill="#4D4D4D"/>
<rect x="8" y="30" width="4" height="2" fill="#4D4D4D"/>
<rect x="16" y="30" width="4" height="2" fill="#4D4D4D"/>
<rect x="24" y="30" width="4" height="2" fill="#4D4D4D"/>
<rect x="32" y="30" width="4" height="2" fill="#4D4D4D"/>
<rect x="40" y="30" width="4" height="2" fill="#4D4D4D"/>
<rect x="48" y="30" width="4" height="2" fill="#4D4D4D"/>
<rect x="56" y="30" width="4" height="2" fill="#4D4D4D"/>
<rect x="64" y="30" width="4" height="2" fill="#4D4D4D"/>
<rect x="72" y="30" width="4" height="2" fill="#4D4D4D"/>
<rect x="80" y="30" width="4" height="2" fill="#4D4D4D"/>
<rect x="88" y="30" width="4" height="2" fill="#4D4D4D"/>
<rect x="96" y="30" width="4" height="2" fill="#4D4D4D"/>
<rect y="36" width="4" height="2" fill="#4D4D4D"/>
<rect x="8" y="36" width="4" height="2" fill="#4D4D4D"/>
<rect x="16" y="36" width="4" height="2" fill="#4D4D4D"/>
<rect x="24" y="36" width="4" height="2" fill="#4D4D4D"/>
<rect x="32" y="36" width="4" height="2" fill="#4D4D4D"/>
<rect x="40" y="36" width="4" height="2" fill="#4D4D4D"/>
<rect x="48" y="36" width="4" height="2" fill="#4D4D4D"/>
<rect x="56" y="36" width="4" height="2" fill="#4D4D4D"/>
<rect x="64" y="36" width="4" height="2" fill="#4D4D4D"/>
<rect x="72" y="36" width="4" height="2" fill="#4D4D4D"/>
<rect x="80" y="36" width="4" height="2" fill="#4D4D4D"/>
<rect x="88" y="36" width="4" height="2" fill="#4D4D4D"/>
<rect x="96" y="36" width="4" height="2" fill="#4D4D4D"/>
<rect y="42" width="4" height="2" fill="#4D4D4D"/>
<rect x="8" y="42" width="4" height="2" fill="#4D4D4D"/>
<rect x="16" y="42" width="4" height="2" fill="#4D4D4D"/>
<rect x="24" y="42" width="4" height="2" fill="#4D4D4D"/>
<rect x="32" y="42" width="4" height="2" fill="#4D4D4D"/>
<rect x="40" y="42" width="4" height="2" fill="#4D4D4D"/>
<rect x="48" y="42" width="4" height="2" fill="#4D4D4D"/>
<rect x="56" y="42" width="4" height="2" fill="#4D4D4D"/>
<rect x="64" y="42" width="4" height="2" fill="#4D4D4D"/>
<rect x="72" y="42" width="4" height="2" fill="#4D4D4D"/>
<rect x="80" y="42" width="4" height="2" fill="#4D4D4D"/>
<rect x="88" y="42" width="4" height="2" fill="#4D4D4D"/>
<rect x="96" y="42" width="4" height="2" fill="#4D4D4D"/>
<rect y="48" width="4" height="2" fill="#4D4D4D"/>
<rect x="8" y="48" width="4" height="2" fill="#4D4D4D"/>
<rect x="16" y="48" width="4" height="2" fill="#4D4D4D"/>
<rect x="24" y="48" width="4" height="2" fill="#4D4D4D"/>
<rect x="32" y="48" width="4" height="2" fill="#4D4D4D"/>
<rect x="40" y="48" width="4" height="2" fill="#4D4D4D"/>
<rect x="48" y="48" width="4" height="2" fill="#4D4D4D"/>
<rect x="56" y="48" width="4" height="2" fill="#4D4D4D"/>
<rect x="64" y="48" width="4" height="2" fill="#4D4D4D"/>
<rect x="72" y="48" width="4" height="2" fill="#4D4D4D"/>
<rect x="80" y="48" width="4" height="2" fill="#4D4D4D"/>
<rect x="88" y="48" width="4" height="2" fill="#4D4D4D"/>
<rect x="96" y="48" width="4" height="2" fill="#4D4D4D"/>
<rect y="54" width="4" height="2" fill="#4D4D4D"/>
<rect x="8" y="54" width="4" height="2" fill="#4D4D4D"/>
<rect x="16" y="54" width="4" height="2" fill="#4D4D4D"/>
<rect x="24" y="54" width="4" height="2" fill="#4D4D4D"/>
<rect x="32" y="54" width="4" height="2" fill="#4D4D4D"/>
<rect x="40" y="54" width="4" height="2" fill="#4D4D4D"/>
<rect x="48" y="54" width="4" height="2" fill="#4D4D4D"/>
<rect x="56" y="54" width="4" height="2" fill="#4D4D4D"/>
<rect x="64" y="54" width="4" height="2" fill="#4D4D4D"/>
<rect x="72" y="54" width="4" height="2" fill="#4D4D4D"/>
<rect x="80" y="54" width="4" height="2" fill="#4D4D4D"/>
<rect x="88" y="54" width="4" height="2" fill="#4D4D4D"/>
<rect x="96" y="54" width="4" height="2" fill="#4D4D4D"/>
<rect y="60" width="4" height="2" fill="#4D4D4D"/>
<rect x="8" y="60" width="4" height="2" fill="#4D4D4D"/>
<rect x="16" y="60" width="4" height="2" fill="#4D4D4D"/>
<rect x="24" y="60" width="4" height="2" fill="#4D4D4D"/>
<rect x="32" y="60" width="4" height="2" fill="#4D4D4D"/>
<rect x="40" y="60" width="4" height="2" fill="#4D4D4D"/>
<rect x="48" y="60" width="4" height="2" fill="#4D4D4D"/>
<rect x="56" y="60" width="4" height="2" fill="#4D4D4D"/>
<rect x="64" y="60" width="4" height="2" fill="#4D4D4D"/>
<rect x="72" y="60" width="4" height="2" fill="#4D4D4D"/>
<rect x="80" y="60" width="4" height="2" fill="#4D4D4D"/>
<rect x="88" y="60" width="4" height="2" fill="#4D4D4D"/>
<rect x="96" y="60" width="4" height="2" fill="#4D4D4D"/>
<rect y="66" width="4" height="2" fill="#4D4D4D"/>
<rect x="8" y="66" width="4" height="2" fill="#4D4D4D"/>
<rect x="16" y="66" width="4" height="2" fill="#4D4D4D"/>
<rect x="24" y="66" width="4" height="2" fill="#4D4D4D"/>
<rect x="32" y="66" width="4" height="2" fill="#4D4D4D"/>
<rect x="40" y="66" width="4" height="2" fill="#4D4D4D"/>
<rect x="48" y="66" width="4" height="2" fill="#4D4D4D"/>
<rect x="56" y="66" width="4" height="2" fill="#4D4D4D"/>
<rect x="64" y="66" width="4" height="2" fill="#4D4D4D"/>
<rect x="72" y="66" width="4" height="2" fill="#4D4D4D"/>
<rect x="80" y="66" width="4" height="2" fill="#4D4D4D"/>
<rect x="88" y="66" width="4" height="2" fill="#4D4D4D"/>
<rect x="96" y="66" width="4" height="2" fill="#4D4D4D"/>
<rect y="72" width="4" height="2" fill="#4D4D4D"/>
<rect x="8" y="72" width="4" height="2" fill="#4D4D4D"/>
<rect x="16" y="72" width="4" height="2" fill="#4D4D4D"/>
<rect x="24" y="72" width="4" height="2" fill="#4D4D4D"/>
<rect x="32" y="72" width="4" height="2" fill="#4D4D4D"/>
<rect x="40" y="72" width="4" height="2" fill="#4D4D4D"/>
<rect x="48" y="72" width="4" height="2" fill="#4D4D4D"/>
<rect x="56" y="72" width="4" height="2" fill="#4D4D4D"/>
<rect x="64" y="72" width="4" height="2" fill="#4D4D4D"/>
<rect x="72" y="72" width="4" height="2" fill="#4D4D4D"/>
<rect x="80" y="72" width="4" height="2" fill="#4D4D4D"/>
<rect x="88" y="72" width="4" height="2" fill="#4D4D4D"/>
<rect x="96" y="72" width="4" height="2" fill="#4D4D4D"/>
<rect y="78" width="4" height="2" fill="#4D4D4D"/>
<rect x="8" y="78" width="4" height="2" fill="#4D4D4D"/>
<rect x="16" y="78" width="4" height="2" fill="#4D4D4D"/>
<rect x="24" y="78" width="4" height="2" fill="#4D4D4D"/>
<rect x="32" y="78" width="4" height="2" fill="#4D4D4D"/>
<rect x="40" y="78" width="4" height="2" fill="#4D4D4D"/>
<rect x="48" y="78" width="4" height="2" fill="#4D4D4D"/>
<rect x="56" y="78" width="4" height="2" fill="#4D4D4D"/>
<rect x="64" y="78" width="4" height="2" fill="#4D4D4D"/>
<rect x="72" y="78" width="4" height="2" fill="#4D4D4D"/>
<rect x="80" y="78" width="4" height="2" fill="#4D4D4D"/>
<rect x="88" y="78" width="4" height="2" fill="#4D4D4D"/>
<rect x="96" y="78" width="4" height="2" fill="#4D4D4D"/>
<rect y="84" width="4" height="2" fill="#4D4D4D"/>
<rect x="8" y="84" width="4" height="2" fill="#4D4D4D"/>
<rect x="16" y="84" width="4" height="2" fill="#4D4D4D"/>
<rect x="24" y="84" width="4" height="2" fill="#4D4D4D"/>
<rect x="32" y="84" width="4" height="2" fill="#4D4D4D"/>
<rect x="40" y="84" width="4" height="2" fill="#4D4D4D"/>
<rect x="48" y="84" width="4" height="2" fill="#4D4D4D"/>
<rect x="56" y="84" width="4" height="2" fill="#4D4D4D"/>
<rect x="64" y="84" width="4" height="2" fill="#4D4D4D"/>
<rect x="72" y="84" width="4" height="2" fill="#4D4D4D"/>
<rect x="80" y="84" width="4" height="2" fill="#4D4D4D"/>
<rect x="88" y="84" width="4" height="2" fill="#4D4D4D"/>
<rect x="96" y="84" width="4" height="2" fill="#4D4D4D"/>
</svg>
