<svg width="17" height="16" viewBox="0 0 17 16" fill="none" xmlns="http://www.w3.org/2000/svg">
<g clip-path="url(#clip0_717_3796)">
<path d="M14.5447 6.66797C14.5447 11.3346 8.54468 15.3346 8.54468 15.3346C8.54468 15.3346 2.54468 11.3346 2.54468 6.66797C2.54468 5.07667 3.17682 3.55055 4.30204 2.42533C5.42726 1.30011 6.95338 0.667969 8.54468 0.667969C10.136 0.667969 11.6621 1.30011 12.7873 2.42533C13.9125 3.55055 14.5447 5.07667 14.5447 6.66797Z" stroke="#D9D9D9" stroke-width="2" stroke-linecap="round" stroke-linejoin="round"/>
<path d="M8.54468 8.66797C9.64925 8.66797 10.5447 7.77254 10.5447 6.66797C10.5447 5.5634 9.64925 4.66797 8.54468 4.66797C7.44011 4.66797 6.54468 5.5634 6.54468 6.66797C6.54468 7.77254 7.44011 8.66797 8.54468 8.66797Z" stroke="#D9D9D9" stroke-width="2" stroke-linecap="round" stroke-linejoin="round"/>
</g>
<defs>
<clipPath id="clip0_717_3796">
<rect width="16" height="16" fill="white" transform="translate(0.544678)"/>
</clipPath>
</defs>
</svg>
