<svg width="25" height="24" viewBox="0 0 25 24" fill="none" xmlns="http://www.w3.org/2000/svg">
<path d="M22.5441 16.9201V19.9201C22.5453 20.1986 22.4882 20.4743 22.3766 20.7294C22.2651 20.9846 22.1014 21.2137 21.8962 21.402C21.691 21.5902 21.4487 21.7336 21.1849 21.8228C20.921 21.912 20.6415 21.9452 20.3641 21.9201C17.287 21.5857 14.3311 20.5342 11.7341 18.8501C9.31795 17.3148 7.26946 15.2663 5.73412 12.8501C4.0441 10.2413 2.99237 7.27109 2.66412 4.1801C2.63913 3.90356 2.672 3.62486 2.76062 3.36172C2.84925 3.09859 2.99169 2.85679 3.17889 2.65172C3.36608 2.44665 3.59393 2.28281 3.84791 2.17062C4.1019 2.05843 4.37646 2.00036 4.65412 2.0001H7.65412C8.13943 1.99532 8.60991 2.16718 8.97788 2.48363C9.34585 2.80008 9.5862 3.23954 9.65412 3.7201C9.78075 4.68016 10.0156 5.62282 10.3541 6.5301C10.4887 6.88802 10.5178 7.27701 10.438 7.65098C10.3583 8.02494 10.173 8.36821 9.90412 8.6401L8.63412 9.9101C10.0577 12.4136 12.1306 14.4865 14.6341 15.9101L15.9041 14.6401C16.176 14.3712 16.5193 14.1859 16.8932 14.1062C17.2672 14.0264 17.6562 14.0556 18.0141 14.1901C18.9214 14.5286 19.8641 14.7635 20.8241 14.8901C21.3099 14.9586 21.7535 15.2033 22.0707 15.5776C22.3878 15.9519 22.5563 16.4297 22.5441 16.9201Z" stroke="white" stroke-width="2" stroke-linecap="round" stroke-linejoin="round"/>
</svg>
