<svg width="50" height="40" viewBox="0 0 50 40" fill="none" xmlns="http://www.w3.org/2000/svg">
<path d="M15.4784 40C34.0518 40 44.209 24.6123 44.209 11.2694C44.209 10.8322 44.2 10.3973 44.1799 9.96403C46.1514 8.53884 47.8654 6.75987 49.2173 4.73571C47.4081 5.53956 45.4612 6.08086 43.4186 6.32492C45.5032 5.07494 47.1041 3.09669 47.8593 0.738906C45.9079 1.89597 43.7471 2.73675 41.4476 3.19017C39.6042 1.22759 36.98 0 34.0764 0C28.4994 0 23.9769 4.52244 23.9769 10.0967C23.9769 10.8893 24.0659 11.6596 24.2383 12.3991C15.8467 11.9776 8.40505 7.95891 3.42528 1.8495C2.55706 3.34131 2.05718 5.0755 2.05718 6.92444C2.05718 10.4275 3.84007 13.5203 6.55107 15.3301C4.89469 15.2791 3.33851 14.8235 1.97769 14.0666C1.97545 14.1086 1.97545 14.1512 1.97545 14.1954C1.97545 19.0862 5.45671 23.1692 10.0765 24.0945C9.22849 24.3257 8.3362 24.4499 7.41481 24.4499C6.76435 24.4499 6.1318 24.385 5.5166 24.268C6.80185 28.2794 10.53 31.1992 14.95 31.2815C11.4933 33.9902 7.1394 35.6041 2.40872 35.6041C1.59425 35.6041 0.790405 35.5576 0 35.4641C4.4687 38.3279 9.77483 40 15.4784 40Z" fill="black"/>
</svg>
